<svg width="150" height="150" viewBox="0 0 150 150" fill="none" xmlns="http://www.w3.org/2000/svg">
<path d="M131.25 131.25L104.125 104.125M118.75 68.75C118.75 96.3642 96.3642 118.75 68.75 118.75C41.1358 118.75 18.75 96.3642 18.75 68.75C18.75 41.1358 41.1358 18.75 68.75 18.75C96.3642 18.75 118.75 41.1358 118.75 68.75Z" stroke="#686060" stroke-width="5" stroke-linecap="round" stroke-linejoin="round"/>
<path d="M60.7542 71.6248C60.272 71.1221 59.8968 70.527 59.651 69.8753C59.4051 69.2237 59.2939 68.5289 59.324 67.8331C59.354 67.1372 59.5247 66.4547 59.8258 65.8266C60.1269 65.1986 60.5521 64.638 61.0758 64.1788C61.5994 63.7196 62.2107 63.3712 62.8727 63.1548C63.5347 62.9383 64.2337 62.8581 64.9275 62.9192C65.6213 62.9803 66.2956 63.1813 66.9096 63.5101C67.5236 63.8389 68.0646 64.2887 68.5 64.8323C68.9375 64.2943 69.479 63.8502 70.0921 63.5263C70.7052 63.2024 71.3774 63.0056 72.0683 62.9475C72.7593 62.8894 73.4549 62.9712 74.1135 63.1882C74.7721 63.4051 75.3801 63.7526 75.9013 64.21C76.4225 64.6673 76.8461 65.2251 77.1467 65.8499C77.4474 66.4747 77.6189 67.1538 77.6511 67.8464C77.6832 68.5391 77.5754 69.2311 77.3339 69.8811C77.0925 70.5311 76.7224 71.1257 76.2458 71.6294L70.2279 78.1744C70.0132 78.4216 69.748 78.6198 69.4501 78.7557C69.1522 78.8915 68.8286 78.9618 68.5011 78.9618C68.1737 78.9618 67.8501 78.8915 67.5522 78.7557C67.2543 78.6198 66.9891 78.4216 66.7744 78.1744L60.7542 71.6248Z" stroke="#FF4466" stroke-width="3" stroke-linecap="round" stroke-linejoin="round"/>
<path d="M47.875 62.9165C47.8748 62.2497 48.0201 61.591 48.3008 60.9862C48.5814 60.3814 48.9906 59.8452 49.4998 59.4148L65.5415 45.6648C66.3687 44.9656 67.4169 44.582 68.5 44.582C69.5831 44.582 70.6313 44.9656 71.4585 45.6648L87.5002 59.4148C88.0094 59.8452 88.4186 60.3814 88.6992 60.9862C88.9799 61.591 89.1252 62.2497 89.125 62.9165V83.5415C89.125 84.757 88.6421 85.9228 87.7826 86.7824C86.923 87.6419 85.7572 88.1248 84.5417 88.1248H52.4583C51.2428 88.1248 50.077 87.6419 49.2174 86.7824C48.3579 85.9228 47.875 84.757 47.875 83.5415V62.9165Z" stroke="#FF4466" stroke-width="3" stroke-linecap="round" stroke-linejoin="round"/>
</svg>
